<svg xmlns="http://www.w3.org/2000/svg" preserveAspectRatio="xMidYMid meet" viewBox="276 247.55 473 428.48"><path fill="#373737" d="M405.528 247.628q3.964-.003 7.93-.011c6.391-.01 12.783-.003 19.175.009 7.453.014 14.906.012 22.36.01q19.944-.003 39.89.028 19.335.029 38.67.02 21.101-.009 42.204.006 2.25.001 4.5.004a16174.12 16174.12 0 0 0 17.811.003q10.47-.003 20.942.022 3.844.006 7.69.003c3.493-.004 6.987.005 10.481.018l3.083-.012c4.997.03 9.047.333 13.736 2.272q2.125.539 4.27 1l2.251.5q2.319.506 4.641 1c1.961.439 3.902.963 5.838 1.5l1 2 2.09.403c3.802.78 7.038 2.417 10.472 4.16l2.116 1.067c6.386 3.288 12.718 6.849 18.322 11.37v2l1.617.625c3.372 1.946 5.812 4.594 8.508 7.375l1.63 1.657Q718.88 286.824 721 289l2 2c22.235 25.808 24.491 57.686 24.403 90.2-.008 3.76 0 7.52.004 11.282q.006 9.46-.016 18.923c-.016 7.242-.01 14.484.006 21.726q.02 9.411.007 18.822c-.004 3.723-.005 7.445.005 11.168.073 31.429-3.526 60.304-23.409 85.879l-2.016 2.664c-17.97 22.95-45.399 40.523-74.629 44.11-3.492.37-6.984.657-10.488.902-3.66.066-3.66.066-5.867 1.324q-2.994.541-6 1v-2c-3.75.139-7.5.288-11.25.438l-3.223.119-3.105.127-2.857.11c-2.528.127-2.528.127-4.763.785-2.49.582-3.677-.288-5.802-1.58l-1 2v-2h-20l-1 3-1-2h-14v1h-5v-1a876 876 0 0 0-5.375-.061l-3.024-.035c-2.585-.083-2.585-.083-4.6 1.097v-2h-22l-1 2v-2q-4.377.211-8.75.438l-2.5.119-2.423.127-2.222.11c-2.118.208-4.053.656-6.106 1.206h-6v-1a856 856 0 0 0-5.313-.062l-2.988-.035c-2.799-.026-2.799-.026-5.699 1.097h-4a84 84 0 0 0-6.375 5.25l-3.758 3.317-1.938 1.727c-3.023 2.674-6.104 5.28-9.179 7.894a506 506 0 0 0-11.938 10.5c-4.239 3.85-8.64 7.46-13.093 11.062-2.64 2.185-5.186 4.442-7.719 6.75-4.19 3.815-8.519 7.405-12.93 10.96a282 282 0 0 0-6.89 5.892l-2.004 1.765a575 575 0 0 0-3.874 3.455c-5.527 4.88-10.716 8.167-18.302 8.428-5.722-1.244-9.898-3.897-14-8-3.966-6.565-4.17-12.781-4.316-20.238l-.063-2.67q-.097-4.201-.184-8.404l-.13-5.713A7221 7221 0 0 1 353 617h-1v-28l-6-2c-23.666-10.786-43.834-30.08-56-53v-2l-2-1c-.822-1.727-.822-1.727-1.62-3.98l-.893-2.507-.925-2.7-.947-2.757c-6.913-20.54-6.78-40.856-6.745-62.321q.005-5.926-.007-11.854l.004-7.55-.006-3.572.01-3.31.002-2.905c.116-2.331.466-4.313 1.127-6.544l-2-1 .254-1.976c.578-4.966.687-9.083-.254-14.024l.46-1.82c.648-2.618.67-4.983.673-7.68l.004-3.187-.012-3.313.012-3.312-.004-3.188c0-.96-.003-1.918-.004-2.906-.033-2.537-.033-2.537-.7-4.687-.52-2.314-.068-3.643.571-5.907.098-1.498.154-3 .176-4.5.783-33.17 10.58-59.655 33.824-83.5l1.945-2.168c23.763-25.77 59.557-30.311 92.583-30.204m-72.903 57.685c-16.81 19.626-20.78 40.659-20.77 65.669l-.01 3.75q-.012 5.036-.012 10.073 0 3.16-.006 6.32-.014 11.063-.012 22.126-.001 10.252-.026 20.504-.02 8.856-.018 17.71.002 5.264-.013 10.532c-.012 3.92-.007 7.842 0 11.763-.007 1.137-.012 2.274-.018 3.445.094 24.42 7.53 44.647 24.385 62.42 10.52 10.172 23.15 16.889 37.023 21.399 5.285 1.81 10.183 4.374 13.29 9.164 3.394 7.198 2.728 16.166 2.878 23.976a4222 4222 0 0 1 .246 11.46l.131 5.935q.16 7.22.307 14.44a6260.967 6260.967 0 0 1 5.908-4.351c2.662-2.097 4.967-4.441 7.322-6.87 2.428-2.438 5.015-4.663 7.618-6.91 6.652-5.771 13.124-11.747 19.611-17.702a2572 2572 0 0 1 17.76-16.17 230 230 0 0 1 3.976-3.461 71 71 0 0 0 3.36-3.04c8.281-7.23 23.588-4.626 33.902-4.557q3 .008 6.001.017c3.451.01 6.903.028 10.354.045 4.176.02 8.351.04 12.527.05q3.879.012 7.76.038l3.502.01 3.095.016c2.267.147 2.267.147 3.304-1.114q3.5.494 7 1c2.692.085 5.356.127 8.047.114h2.338c2.526 0 5.053-.008 7.58-.016l5.283-.004q6.927-.007 13.854-.025 7.079-.014 14.158-.02 13.87-.017 27.74-.05v-2h2v2c19.894.699 38.8-4.39 55-16l2.855-2.018c17.253-13.116 26.41-31.205 29.667-52.371.71-5.805.634-11.617.64-17.457l.014-3.852q.019-5.205.024-10.41l.012-6.528q.02-10.253.027-20.505.007-11.763.051-23.526.032-9.138.033-18.276 0-5.436.025-10.872c.12-25.327-.525-49.536-17.348-70.184a162 162 0 0 0-5-4l-1.813-2.312C676.01 289.726 657.525 283.455 639 281c-3.704-.248-7.388-.275-11.099-.26l-3.179-.012c-3.48-.01-6.959-.006-10.438-.002l-7.528-.016q-9.131-.016-18.263-.012-7.429.002-14.858-.004l-2.144-.002-4.312-.004c-13.453-.011-26.906-.008-40.359-.002q-18.419.005-36.836-.025-18.96-.03-37.919-.024-10.626.005-21.25-.015-9.997-.019-19.993.002-3.655.004-7.31-.008c-27.395-.087-51.26 4.142-70.887 24.697M353 592v5h1v-5zm0 6v7h1v-7zm340-334h3l-1 2zM357 552h2l-1 2zm123 8 2 1Zm-48 24 3 1h-3zm195 14 2 1Z"/><path fill="#373737" d="M532.043 398.605c5.695 5.307 9.348 11.797 10.195 19.586.337 10.744-3.184 18.417-10.433 26.226C530 446 530 446 528 446v2c-11.648 4.034-20.455 5.597-32 0-7.573-4.832-11.213-11.64-14-20-.898-10.626.509-17.967 7.25-26.25 11.997-12.815 28.906-14.058 42.793-3.145M523 392l2 1Z"/><path fill="#373737" d="M426 397c7.25 6.741 11.276 13.494 12 23.453 0 8.784-3.265 16.854-9.188 23.297-4.496 4.226-9.685 6.995-15.874 7.5L411 451v3c-11.687-2.752-21.911-5.618-28.812-16-4.491-7.858-5.671-15.821-3.536-24.719 2.981-8.291 8.441-14.934 16.121-19.308 10.276-4.489 22.032-3.533 31.227 3.027"/><path fill="#373737" d="M636 399c7.652 7.906 9.609 15.19 9.438 26.102-.902 8.033-4.495 14.47-10.376 19.96-6.906 5.418-14.307 7.512-23.062 6.938-8.428-1.524-15.24-5.249-20.602-12.023-5.191-7.924-6.319-15.614-5.398-24.977.943-3.278 2.286-6.062 4-9l1.688-3.188c5.467-6.649 13.508-10.917 22.082-11.769 8.45-.163 15.642 2.76 22.23 7.957"/><path fill="#303030" d="m390.615 247.746 3.347-.009c3.666-.008 7.332-.002 10.998.004l7.927-.01q9.615-.012 19.228-.002 7.813.007 15.627.003l2.252-.001 4.53-.002q21.196-.006 42.393.012 18.18.012 36.36-.002a37236 37236 0 0 1 49.024-.006q7.807.002 15.614-.006a8650 8650 0 0 1 21.004.01q3.857.004 7.713-.002c3.505-.006 7.01.001 10.515.011l3.094-.014c5.005.028 9.063.323 13.759 2.268q2.125.539 4.27 1l2.252.5q2.319.506 4.64 1c1.961.439 3.902.963 5.838 1.5l1 2 2.078.394c3.909.81 7.133 2.488 10.672 4.293l2.141 1.085c14.523 7.471 14.523 7.471 16.109 12.228-4.229-1.478-7.517-3.64-11.187-6.188-18.031-11.958-40.16-16.98-61.576-16.946l-3.216-.007q-5.318-.007-10.634-.004l-7.64-.01q-9.291-.012-18.582-.012l-15.12-.006q-21.473-.013-42.945-.012h-4.675q-18.737-.001-37.475-.023-19.276-.022-38.552-.021-10.808.002-21.615-.013-10.174-.014-20.349-.003-3.72.002-7.439-.007c-12.827-.029-25.316.159-37.995 2.252 5.517-6.793 18.601-5.289 26.615-5.254M693 264h3l-1 2zm10 10c2.438.812 2.438.812 5 2l1 3c-3.161-1.37-3.993-1.989-6-5m6 5h2l-1 2zm2 2c3.235 1.617 4.706 2.476 7 5l-1 2zm7 7 5 2-1 4a90 90 0 0 1-4-4zm5 6 3 1-1 3zm3 4c5.665 1.888 8.284 9.529 10.894 14.677 10.344 21.728 10.573 44.939 10.509 68.523-.008 3.76-.001 7.521.004 11.281a5684 5684 0 0 1-.016 18.924c-.016 7.242-.011 14.483.006 21.725a5624 5624 0 0 1 .007 18.823c-.004 3.722-.005 7.445.005 11.168.072 30.854-2.776 64.66-25.612 88.145L720 553c0-4.021 1.526-5.301 3.938-8.5 14.74-20.474 20.408-44.029 20.321-69.013l.01-3.849c.009-3.441.006-6.881 0-10.321-.005-3.634-.001-7.268.002-10.901q.005-9.154-.01-18.307-.015-10.509.003-21.018.014-9.093.006-18.185-.007-5.4.003-10.8c.044-27.633-.246-55.8-16.523-79.477C726 300 726 300 726 298M347 585l9 4 .018 2.566q.087 12.005.218 24.009c.044 4.114.084 8.227.11 12.341q.041 5.963.117 11.924.025 2.268.035 4.536c-.389 12.412-.389 12.412 4.918 23.163 4.278 3.776 7.656 4.561 13.256 4.789 6.601-.93 11.103-4.445 15.891-8.766l3.691-3.246 1.883-1.671c2.925-2.583 5.895-5.112 8.863-7.645l3.484-2.988a3784 3784 0 0 1 7.157-6.118c5.237-4.469 10.453-8.947 15.547-13.582 4.131-3.749 8.409-7.275 12.746-10.785 5.513-4.544 10.875-9.264 16.259-13.958 2.923-2.538 5.864-5.055 8.807-7.569l2 1c-6.8 6.873-13.909 13.369-21.437 19.437-3.995 3.222-7.808 6.57-11.563 10.063-4.632 4.31-9.421 8.351-14.352 12.32-2.621 2.158-5.14 4.393-7.648 6.68-4.19 3.815-8.519 7.405-12.93 10.961a280 280 0 0 0-6.89 5.891l-2.003 1.764a579 579 0 0 0-3.875 3.455c-5.527 4.88-10.716 8.167-18.302 8.429-5.721-1.244-9.898-3.898-14-8-3.966-6.565-4.17-12.781-4.316-20.238l-.063-2.669q-.097-4.203-.183-8.406l-.131-5.712q-.16-6.988-.307-13.975h-1v-28l-5-2zm6 7v5h1v-5zm0 6v7h1v-7zm365-45 1 2c-17.096 21.697-44.677 37.203-72 41-2.466.087-4.935.122-7.403.12l-2.194.003q-3.62 0-7.24-.01l-5.205.001q-7.053-.001-14.106-.013c-4.917-.006-9.833-.006-14.75-.008q-13.96-.005-27.921-.021-15.897-.015-31.792-.022-32.695-.016-65.389-.05c3.388-2.047 5.979-2.246 9.907-2.234l3.664-.004 4.012.027 4.235.004q4.563.005 9.126.026c4.833.022 9.666.03 14.499.037q11.508.018 23.016.056 20.496.067 40.992.101 7.17.012 14.339.041c13.457.049 26.906.085 40.355-.482l2.726-.113C669.945 591.873 695.985 575.222 718 553"/><path fill="#090909" d="M404.197 278.612q3.824-.006 7.647-.016c6.18-.012 12.36-.01 18.54-.002q7.543.01 15.085.005l2.177-.002 4.379-.003c13.658-.008 27.316.002 40.974.018q17.536.018 35.073-.003a22225 22225 0 0 1 40.828-.013q2.182 0 4.364.003h2.168q7.521.004 15.043-.008c6.766-.01 13.53-.002 20.296.015q3.71.006 7.42-.004c15.942-.04 30.794.444 45.809 6.398l1 2c-5.212-.58-10.034-1.783-15.058-3.281-7.157-1.75-14.234-1.866-21.56-1.86l-3.168-.008c-3.492-.01-6.984-.01-10.476-.012l-7.526-.015q-10.212-.019-20.425-.024-6.386-.005-12.772-.012-17.71-.02-35.421-.025l-2.286-.001-2.292-.001-4.598-.001-2.303-.001q-18.457-.008-36.915-.044-18.986-.036-37.972-.038c-7.097-.001-14.194-.006-21.291-.025q-10.02-.024-20.041-.01-3.666.001-7.33-.013c-15.51-.06-30.054.203-44.566 6.309l-3.562 1.465a75 75 0 0 0-7.25 3.85L345 295l-2-1c18.993-14.17 38.395-15.45 61.197-15.388M341 295l2 1-1.937 1.875A531 531 0 0 0 338 301l-2.054 2.102c-6.25 6.638-14.33 15.607-15.946 24.898h-2l-.367 1.653-.508 2.285-.551 2.507a209 209 0 0 1-1.117 4.735c-2.542 10.437-2.606 21.112-2.602 31.802l-.01 3.75q-.011 5.036-.012 10.073-.001 3.16-.006 6.32-.014 11.062-.012 22.126-.001 10.252-.026 20.504a8043 8043 0 0 0-.018 17.71q.002 5.265-.013 10.53c-.011 3.922-.007 7.843-.001 11.764l-.017 3.446c.052 13.416 1.936 26.137 7.448 38.448C321 518 321 518 320 521c-8.277-14.723-10.151-29.503-10.145-46.1l-.01-3.897c-.01-3.504-.011-7.008-.012-10.513l-.006-6.591q-.014-11.53-.012-23.06-.001-10.694-.026-21.388-.019-9.225-.018-18.45.002-5.49-.013-10.98c-.011-4.091-.007-8.182-.001-12.274l-.017-3.601c.086-23.133 6.333-43.96 22.694-60.603L335 301l2.035-2.074A272 272 0 0 1 341 295"/><path fill="#0a0a0a" d="M667 287c8.081 3.488 14.44 8.171 21 14l2.156 1.867C704.79 316.398 712.586 336.448 714 356c.14 4.38.147 8.756.145 13.138a4551 4551 0 0 1 .022 14.304q.001 3.271.006 6.541.014 11.44.012 22.881.001 10.613.026 21.226.019 9.156.018 18.312-.002 5.449.013 10.898c.012 4.058.007 8.116.001 12.174l.017 3.579c-.083 22.325-6.651 43.092-22.514 59.232L689 541l-2.215 2.246c-20.775 19.847-47.816 21.911-75.004 21.922l-5.85.01q-6.097.009-12.194.007c-5.213 0-10.426.014-15.639.031q-6.025.015-12.05.013a1586 1586 0 0 0-5.77.013c-2.678.01-5.356.007-8.034.001l-2.408.017c-3.817-.022-5.582-.091-8.836-2.26 3.315-1.658 7.015-1.099 10.656-1.062l2.6.011c3.681.016 7.36.045 11.04.072q4.024.026 8.048.041l2.535.026c4.193.136 4.193.136 8.121-1.088v2l2.196-.108c3.351-.159 6.703-.307 10.054-.454l3.453-.17A146 146 0 0 1 622 563v-2h2v2c19.65-1.846 42.215-4.215 57-19l1.559-1.016c14.699-9.657 23.445-27.128 26.933-43.886 1.321-8.055 1.661-15.787 1.669-23.945l.015-3.852q.019-5.205.024-10.409.005-3.264.012-6.529.02-10.252.027-20.505.007-11.763.051-23.526.032-9.138.033-18.276 0-5.436.025-10.872c.119-25.37-.649-49.496-17.348-70.184-2.041-1.685-2.041-1.685-4-3-2-2-2-2-4.25-5.062-3.615-4.323-8.192-6.986-12.987-9.829-4.664-2.812-4.664-2.812-5.763-6.109"/><path fill="#151515" d="M363 252c-1 2-1 2-3.816 3.008l-3.746 1.117C341.196 260.653 329.473 267.485 318 277l-2.801 2.172c-2.272 1.64-2.272 1.64-3.199 3.828l-2-1c10.06-13.661 35.103-31.732 53-30m-54 31c0 3.802-.895 4.22-3.5 6.875-17.848 19.547-24.642 45.394-24.661 71.252l-.015 4.299q-.019 5.822-.024 11.642l-.012 7.296q-.02 11.445-.027 22.89-.007 13.151-.051 26.302a6610 6610 0 0 0-.033 20.406q0 6.076-.025 12.151-.023 5.73-.01 11.458c.002 2.041-.012 4.083-.026 6.124.106 23.96 8.159 47.654 23.384 66.305l-1 2c-3.8-3.547-6.643-7.214-9.312-11.688l-1.088-1.759C290 534.27 290 534.27 290 532l-2-1c-.822-1.727-.822-1.727-1.621-3.98l-.892-2.508-.925-2.7-.947-2.756c-6.913-20.54-6.78-40.856-6.745-62.321q.005-5.927-.007-11.854l.004-7.549-.006-3.573.01-3.311.002-2.904c.116-2.331.466-4.313 1.127-6.544l-2-1 .254-1.977c.579-4.965.687-9.082-.254-14.023l.46-1.82c.649-2.619.67-4.983.673-7.68l.004-3.188-.012-3.312.012-3.312-.004-3.188-.004-2.906c-.033-2.538-.033-2.538-.7-4.688-.521-2.313-.068-3.643.571-5.906.099-1.498.154-2.999.176-4.5.695-29.425 8.014-56.675 28.824-78.5zm-5 269c3.919 3.252 7.557 6.554 11.062 10.25 7.864 7.957 17.423 14.138 27.145 19.594C344 583 344 583 345 585c-14.194-2.053-30.92-18.153-40-29-.797-2.32-.797-2.32-1-4"/><path fill="#151515" d="m347 585 9 4 .018 2.566q.086 12.005.218 24.009c.044 4.114.084 8.228.11 12.342q.041 5.962.117 11.923.025 2.268.035 4.536c-.389 12.412-.389 12.412 4.918 23.163 4.278 3.776 7.656 4.561 13.256 4.789 6.601-.93 11.103-4.445 15.89-8.766l3.692-3.246 1.883-1.671c2.925-2.583 5.895-5.112 8.863-7.645l3.484-2.988q3.575-3.064 7.157-6.117c5.237-4.47 10.453-8.948 15.547-13.583 4.131-3.749 8.409-7.275 12.746-10.785 5.513-4.544 10.875-9.264 16.259-13.958 2.923-2.538 5.864-5.055 8.807-7.569l2 1c-6.8 6.873-13.909 13.369-21.438 19.438-3.994 3.221-7.808 6.569-11.562 10.062-4.632 4.31-9.421 8.351-14.352 12.32-2.621 2.158-5.14 4.393-7.648 6.68-4.19 3.815-8.519 7.405-12.93 10.961a280 280 0 0 0-6.89 5.891l-2.003 1.764a579 579 0 0 0-3.875 3.455c-5.527 4.88-10.716 8.167-18.302 8.429-5.721-1.244-9.898-3.898-14-8-3.966-6.565-4.17-12.781-4.316-20.238l-.063-2.669q-.098-4.203-.183-8.405l-.131-5.713q-.16-6.988-.307-13.975h-1v-28l-5-2zm6 7v5h1v-5zm0 6v7h1v-7zm128.859-4.241 2.089-.005c2.31-.003 4.619.008 6.928.019q2.484.001 4.967-.001c4.496-.001 8.991.011 13.487.025 4.698.013 9.395.014 14.093.016 8.897.006 17.793.023 26.689.043 10.128.022 20.256.033 30.385.043q31.251.033 62.503.101c-3.666 2.444-5.406 2.247-9.777 2.241l-2.099.005c-2.326.003-4.652-.008-6.978-.019q-2.499-.001-4.997.001c-4.526.001-9.053-.011-13.579-.025-4.729-.013-9.457-.014-14.186-.016-8.957-.006-17.913-.023-26.87-.043a25985 25985 0 0 0-30.587-.043Q502.463 596.068 471 596c3.621-2.27 6.641-2.247 10.859-2.241"/><path fill="#262626" d="M390.39 247.76c1.08-.003 2.16-.004 3.273-.006 3.584-.003 7.167.007 10.75.018h7.75q8.313 0 16.628.016 12.02.023 24.04.024 19.507.007 39.013.037 18.938.027 37.877.041l2.362.001 11.732.008q48.592.032 97.185.101v2l-1.655.004q-48.639.12-97.277.276l-11.7.037-2.352.007q-18.816.059-37.632.103-19.33.047-38.661.115-11.911.042-23.824.065-9.159.02-18.318.06-3.74.014-7.478.017c-12.856.012-25.394.227-38.103 2.316 5.479-6.752 18.42-5.288 26.39-5.24"/><path fill="#090909" d="M375 282v1l-2.641.664c-7.377 1.964-13.885 4.307-20.64 7.969-2.846 1.431-5.679 2.428-8.719 3.367 6.384-6.975 22.035-16.536 32-13m-34 13 2 1-1.938 1.875A564 564 0 0 0 338 301l-2.055 2.102C329.696 309.74 321.616 318.709 320 328h-2l-.367 1.652-.508 2.286-.551 2.507a209 209 0 0 1-1.117 4.735c-2.542 10.436-2.607 21.112-2.602 31.802a4256 4256 0 0 0-.022 13.823l-.006 6.32q-.014 11.063-.012 22.126-.001 10.252-.026 20.504a8043 8043 0 0 0-.018 17.711q.002 5.265-.013 10.53c-.012 3.921-.007 7.842-.001 11.763l-.017 3.446c.052 13.416 1.936 26.137 7.448 38.447C321 518 321 518 320 521c-8.277-14.723-10.152-29.503-10.145-46.1l-.01-3.897a4094 4094 0 0 1-.012-10.513l-.006-6.591q-.014-11.53-.012-23.06-.001-10.694-.026-21.388-.019-9.225-.018-18.449.002-5.49-.013-10.981c-.012-4.091-.007-8.182-.001-12.274l-.017-3.601c.086-23.133 6.333-43.96 22.694-60.603L335 301l2.035-2.074A267 267 0 0 1 341 295"/><path fill="#1e1e1e" d="M322 524h3c1.289 1.652 1.289 1.652 2.625 3.938 2.979 4.754 6.533 8.393 10.617 12.214C340 542 340 542 340 544c-8.175-3.705-13.343-11.612-18-19zm18 20 5 2v2c-3.875-1.75-3.875-1.75-5-4m5 4c4.235.931 7.81 2.877 11.625 4.875 5.449 2.807 10.655 5.133 16.652 6.555L375 560l1 2 2.75.75c4.641 1.785 6.898 4.914 9.353 9.156 2.806 6.55 2.074 15.006 2.213 22.039l.063 2.715q.096 4.233.183 8.465l.131 5.789q.16 7.043.307 14.086l1.253-1.177q2.809-2.633 5.622-5.261l1.973-1.853 1.894-1.768 1.746-1.634C405 612 405 612 407 611l2-3a70 70 0 0 1 3.625-2.688c3.842-2.801 7.083-5.923 10.395-9.324 2.441-2.451 5.026-4.687 7.648-6.941 2.995-2.629 5.912-5.336 8.832-8.047 4.765-4.416 9.562-8.778 14.5-13l2.812-2.5L459 564l3 1a987 987 0 0 1-4.875 4.5l-2.742 2.531C452 574 452 574 450 574v2a106 106 0 0 1-5.062 4.188c-4.011 3.205-7.719 6.468-11.286 10.152-2.318 2.329-4.805 4.44-7.293 6.586-2.958 2.6-5.846 5.271-8.734 7.949-7.577 7.019-15.226 13.949-23.031 20.715A81 81 0 0 0 391 629h-3l-.06-3.94a4757 4757 0 0 0-.257-14.627q-.057-3.15-.105-6.302c.563-18.409.563-18.409-4.539-35.6-4.189-3.489-8.584-5.157-13.664-7.031q-2.967-1.153-5.93-2.32l-2.854-1.122C348.383 553.074 348.383 553.074 345 548m12 4h2l-1 2zm75 32 3 1h-3z"/><path fill="#0b0b0b" d="m654.813 249.813 4.238 1.129 2.05.554c3.606.956 7.251 1.722 10.9 2.504v2l2.014.27c3.885.95 7.184 2.607 10.736 4.418l2.14 1.084c14.524 7.47 14.524 7.47 16.11 12.228-4.23-1.478-7.517-3.64-11.188-6.187C676.737 257.815 658.83 253.026 641 251v-2c5.037-1.232 8.923-.57 13.812.811M693 264h3c-.332.66-.66 1.319-1 2-.66-.661-1.322-1.32-2-2m10 10c2.437.812 2.437.812 5 2l1 3c-3.163-1.37-3.993-1.99-6-5m6 5h2c-.332.66-.66 1.319-1 2-.332-.661-.66-1.32-1-2m2 2c3.234 1.617 4.705 2.476 7 5-.332.66-.66 1.319-1 2zm7 7 5 2c-.332 1.319-.66 2.639-1 4a90 90 0 0 1-4-4zm5 6 3 1c-.332.99-.66 1.98-1 3-.66-1.32-1.322-2.64-2-4m3 4c4.18 1.393 5.274 4.268 7.312 7.937l1.197 2.144c8.397 15.619 11.814 31.837 11.717 49.456v4.32c.001 3.878-.01 7.758-.024 11.637-.012 4.065-.014 8.131-.016 12.197q-.012 11.527-.043 23.054c-.023 8.755-.034 17.51-.043 26.264-.021 17.996-.057 35.994-.1 53.99h-1c-.005-.668-.007-1.337-.011-2.026q-.122-24.533-.278-49.065-.076-11.864-.134-23.727-.05-10.354-.12-20.707a3625 3625 0 0 1-.061-10.94c-.109-27.757-.292-56.114-16.647-79.906C726 300 726 300 726 298"/><path fill="#1a1a1a" d="M712 494c1.614 4.009.325 7.395-.938 11.312l-.687 2.132C705.846 520.84 699.083 531.164 689 541l-2.211 2.238c-20.752 19.865-47.832 21.919-75.008 21.93l-5.85.01q-6.097.009-12.194.007c-5.213 0-10.426.014-15.639.031q-6.025.015-12.05.013a1586 1586 0 0 0-5.77.013c-2.678.01-5.356.007-8.034.001l-2.408.017c-3.817-.022-5.582-.091-8.836-2.26 3.315-1.658 7.015-1.099 10.656-1.062l2.6.011c3.681.016 7.36.045 11.04.072q4.024.026 8.048.041l2.535.026c4.193.136 4.193.136 8.121-1.088v2l2.196-.108c3.351-.159 6.703-.307 10.054-.454l3.453-.17A146 146 0 0 1 622 563v-2h2v2c19.65-1.846 42.215-4.215 57-19l1.559-1.016c13.858-9.104 22.714-25.466 26.253-41.296l.583-3.176C710 496 710 496 712 494"/><path fill="#151515" d="M426 397c7.25 6.741 11.276 13.494 12 23.453 0 8.784-3.265 16.854-9.188 23.297-4.496 4.226-9.685 6.995-15.874 7.5L411 451v3c-11.687-2.752-21.911-5.618-28.812-16-4.491-7.858-5.671-15.821-3.536-24.719 2.981-8.291 8.441-14.934 16.121-19.308 10.276-4.489 22.032-3.533 31.227 3.027m-32 0-1.793 1.031c-5.983 3.776-8.993 8.847-11.519 15.344-1.824 9.616-.651 17.26 4.562 25.633 4.821 6.327 12.003 9.722 19.75 10.992 7.663.938 15.016-2.133 21.188-6.574 5.774-5.339 9.218-12.472 9.843-20.328-.128-8.585-2.749-15.591-8.668-21.821-7.25-6.631-13.352-7.798-23.054-7.562-4.274.368-6.622 1.103-10.309 3.285"/><path fill="#1d1d1d" d="M525 394v2l-2.457-.508c-7.749-1.425-13.925-1.463-21.543.508l-2.309.574L497 397v-2c9.103-4.187 18.648-5.676 28-1m-2-2 2 1Zm2 4c2.375.25 2.375.25 5 1 1.312 2.062 1.312 2.062 2 4-2.884-1.293-4.872-2.659-7-5m-31 1 3 1-2.625 1.75c-5.454 4.61-8.782 11.383-9.855 18.383-.257 9.565 1.843 17.104 8.445 24.14 6.196 5.257 14.06 7.242 22.035 6.727 8.052-1.333 13.72-4.772 19-11 4.258-7.175 6.342-15.078 4.469-23.344-1.42-4.63-3.108-8.064-6.469-11.656l1-2c5.568 4.64 8.271 10.32 9.387 17.484.421 9.114-2.6 16.845-8.512 23.704-2.07 2.23-2.07 2.23-3.875 3.812h-2v2c-11.648 4.035-20.456 5.598-32 0-7.573-4.831-11.213-11.64-14-20-.797-9.437-.115-16.726 5.789-24.293A122 122 0 0 1 494 397"/><path fill="#1b1b1b" d="m637.785 400.691 1.215 1.31-1 3-1.469-1.427c-7.8-7.246-13.734-9.15-24.418-8.856-7.9.714-13.086 4.328-19.113 9.282.357-2.752.756-3.79 2.89-5.633l2.36-1.492 2.328-1.508c12.7-7.169 26.693-4.638 37.207 5.324M591 404.001h2c-1.834 5.63-1.834 5.63-3.047 8.315-2.289 6.446-1.929 14.252.672 20.56 3.46 6.65 8.058 12.355 15.336 14.776 8.322 2.234 16.452 1.563 24.04-2.652 2.784-2.214 5.417-4.553 8-7l1 3c-7.156 6.783-13.184 10.465-23.189 11.25-9.213-.605-16.235-3.726-22.812-10.25-6.463-8.166-8.04-16.739-7-27 1.003-3.224 2.332-6.073 4-9zm48 1 3 2-1 3zm3 7h2c2.643 5.286 1.764 14.441.105 19.991-.94 2.081-1.92 4.056-3.105 6.008h-2l.656-1.625c2.89-8.132 2.63-15.875 2.344-24.375"/><path fill="#1c1c1c" d="M363 252c-1 2-1 2-3.816 3.008l-3.746 1.117C341.196 260.653 329.473 267.485 318 277l-2.801 2.172c-2.272 1.64-2.272 1.64-3.199 3.828l-2-1c10.06-13.661 35.103-31.732 53-30m-54 31c0 3.802-.895 4.22-3.5 6.875-15.093 16.53-22.131 38.158-25.008 59.965L280 352l-2 1c.796-25.458 10.31-49.447 28-68z"/><path fill="#090909" d="M536 279q19.952-.106 39.903-.155c6.177-.016 12.354-.037 18.532-.071a4279 4279 0 0 1 17.915-.059q3.402-.008 6.804-.032c15.625-.108 30.128.481 44.846 6.317l1 2c-5.212-.579-10.034-1.784-15.059-3.281-7.057-1.725-14.078-1.88-21.304-1.924l-3.048-.03q-4.951-.046-9.901-.081l-6.894-.063q-9.045-.082-18.09-.153-9.241-.077-18.481-.161-18.112-.161-36.223-.307z"/><path fill="#1b1b1b" d="m279 499 1 3h2l.629 2.719c4.13 16.729 11.115 31.405 21.371 45.281l-1 2c-3.8-3.547-6.643-7.214-9.312-11.688l-1.088-1.759C290 534.27 290 534.27 290 532l-2-1c-.838-1.823-.838-1.823-1.656-4.191l-.91-2.616-.934-2.755-.934-2.674C279 505.505 279 505.505 279 499m25 53c3.919 3.252 7.557 6.554 11.062 10.25 7.864 7.957 17.423 14.138 27.145 19.594C344 583 344 583 345 585c-14.194-2.053-30.92-18.153-40-29-.797-2.32-.797-2.32-1-4"/><path fill="#202020" d="M375 282v1l-2.641.664c-7.377 1.964-13.885 4.307-20.64 7.969-2.846 1.431-5.679 2.428-8.719 3.367 6.384-6.975 22.035-16.536 32-13m-34 13 2 1-1.938 1.875A564 564 0 0 0 338 301l-2.055 2.102C329.696 309.74 321.616 318.709 320 328h-2l-.367 1.652-.508 2.286-.551 2.507a209 209 0 0 1-1.117 4.735c-1.517 6.228-2.046 12.431-2.457 18.82-3.885-7.008-2.051-14.523-.041-21.92 4.2-13.924 11.723-25.001 22.041-35.08l2.031-2.066A254 254 0 0 1 341 295"/><path fill="#191919" d="m459 564 3 1a987 987 0 0 1-4.875 4.5l-2.742 2.531C452 574 452 574 450 574v2a106 106 0 0 1-5.062 4.188c-4.011 3.205-7.719 6.468-11.286 10.152-2.318 2.329-4.805 4.44-7.293 6.586-2.958 2.6-5.846 5.271-8.734 7.949-7.577 7.019-15.226 13.949-23.031 20.715A81 81 0 0 0 391 629l-3-1h2l.814-1.814c1.192-2.197 2.32-3.493 4.155-5.166l1.73-1.588 1.801-1.62 1.801-1.654c4.402-4.01 4.402-4.01 6.699-5.158l2-3a70 70 0 0 1 3.625-2.688c3.842-2.801 7.083-5.923 10.395-9.324 2.441-2.451 5.026-4.687 7.648-6.941 2.995-2.629 5.912-5.336 8.832-8.047 4.765-4.416 9.562-8.778 14.5-13l2.812-2.5zm-27 20 3 1h-3z"/><path fill="#151515" d="m583 561 1 2 2.196-.108c3.351-.159 6.703-.307 10.054-.454l3.453-.17A146 146 0 0 1 622 563v-2h2v2l8-1v3q-17.133.07-34.266.104-7.955.014-15.91.047-7.674.032-15.347.039-2.931.005-5.863.021c-2.732.015-5.463.017-8.195.016l-2.461.022c-3.853-.014-5.675-.06-8.958-2.249 3.324-1.662 7.04-1.099 10.691-1.062l2.608.011q4.132.02 8.263.051 5.44.04 10.879.062l2.551.026c2.003.008 4.006-.035 6.008-.088z"/><path fill="#191919" d="m469 596 2 1c-6.8 6.873-13.909 13.369-21.438 19.438-3.994 3.221-7.808 6.569-11.562 10.062-4.629 4.307-9.415 8.344-14.34 12.312-3.531 2.904-6.909 5.959-10.289 9.036-3.414 3.099-6.89 6.128-10.371 9.152l-2-1c6.455-6.658 12.947-12.945 20.219-18.723 3.037-2.486 5.911-5.102 8.781-7.777 4.525-4.206 9.193-8.168 14.004-12.043 5.499-4.509 10.83-9.215 16.189-13.888 2.923-2.538 5.864-5.055 8.807-7.569"/><path fill="#1c1c1c" d="M667 287c8.081 3.488 14.44 8.171 21 14l2.156 1.867c12.04 11.132 22.006 29.561 23.024 46.043.006 2.373-.041 4.722-.18 7.09l-2-1a142 142 0 0 1-1.25-7.625c-2.119-13.249-7.008-29.343-17.867-38.078L690 308c-2-2-2-2-4.25-5.062-3.615-4.323-8.192-6.986-12.987-9.829-4.664-2.812-4.664-2.812-5.763-6.109"/><path fill="#191818" d="M378 416h1v11h2l.699 1.977c3.362 9.009 7.078 13.831 15.801 18.043 8.387 3.289 15.373 2.222 23.477-1.309 4.85-2.745 8.407-6.52 12.023-10.711 0 4.285-1.993 5.904-4.797 8.992-4.186 3.815-9.267 6.877-15.008 7.133L411 451v3c-11.687-2.752-21.911-5.618-28.812-16-4.223-7.39-4.433-13.605-4.188-22"/><path fill="#141414" d="M525 394v2l-2.457-.508c-7.749-1.425-13.925-1.463-21.543.508l-2.309.574L497 397v-2c9.103-4.187 18.648-5.676 28-1m-2-2 2 1Zm2 4c2.375.25 2.375.25 5 1 1.312 2.062 1.312 2.062 2 4-2.884-1.293-4.872-2.659-7-5m-31 1 3 1-2.562 1.75c-4.873 3.989-7.497 9.794-10.438 15.25-1-3-1-3-.215-5.051 2.888-5.113 5.861-9 10.215-12.949m38 4c4.335 1.927 6.335 4.278 8.285 8.461 1.428 5.07 1.001 10.325.715 15.539h-1l-.297-2.344c-.952-6.634-2.341-11.877-5.703-17.656a355 355 0 0 1-2-4"/><path fill="#171717" d="m637.785 400.691 1.215 1.31-1 3-1.469-1.427c-7.8-7.246-13.734-9.15-24.418-8.856-7.9.714-13.086 4.328-19.113 9.282.357-2.752.756-3.79 2.89-5.633l2.36-1.492 2.328-1.508c12.7-7.169 26.693-4.638 37.207 5.324M591 404.001h2c-1.209 4.43-2.517 6.98-6 10 1.002-3.794 1.81-6.717 4-10m48 1 3 2-1 3z"/><path fill="#1c1c1c" d="m654.813 249.813 4.238 1.129 2.05.554c3.606.956 7.251 1.722 10.9 2.504v2l2 .262c3.974.978 7.363 2.702 11 4.55l2.116 1.041c4.014 2.02 7.468 4.178 10.884 7.147-4.257 0-4.824-.296-8.126-2.562-14.58-9.056-31.958-13.516-48.875-15.437v-2c5.038-1.232 8.923-.57 13.813.811M693 264h3c-.332.66-.66 1.319-1 2-.66-.661-1.322-1.32-2-2"/><path fill="#191919" d="m689 577 3 1c-13.538 11.78-34.377 17.663-52 18 4.153-2.769 8.655-3.518 13.488-4.512 6.889-1.529 13.34-3.832 19.887-6.426l2.595-1.018c3.739-1.514 7.157-3.004 10.444-5.36z"/><path fill="#252525" d="m386 573 3 1c.818 6.893 1.137 13.663 1.098 20.602l-.005 2.916q-.01 4.553-.031 9.107l-.013 6.223q-.017 7.575-.049 15.152h-2l-.076-3.865q-.144-7.164-.296-14.33-.065-3.087-.125-6.176-.089-4.465-.187-8.93l-.05-2.744c-.144-6.352-.62-12.635-1.266-18.955"/><path fill="#0b0b0b" d="m388.895 278.902 2.87.004q4.525.01 9.048.031l6.146.014q7.522.017 15.04.05v2l-49 1 1-2c4.782-1.523 9.934-1.127 14.896-1.099"/><path fill="#1e1e1e" d="m459 564 3 1a987 987 0 0 1-4.875 4.5l-2.742 2.531C452 574 452 574 450 574v2a106 106 0 0 1-5.062 4.188c-4.622 3.689-8.885 7.51-12.938 11.812l-2-1c3.975-4.783 8.073-9.114 12.816-13.137 3.366-2.871 6.617-5.869 9.887-8.847 4.317-3.789 4.317-3.789 6.297-5.016m-27 20 3 1h-3z"/><path fill="#1b1b1b" d="M363 252c-1 2-1 2-3.816 3.008l-3.746 1.117C343.222 259.986 331.639 265.432 322 274l-2-1c8.969-10.207 28.873-22.367 43-21"/><path fill="#0e0e0e" d="M622 561h2v2l8-1v3h-47v-2a2194 2194 0 0 1 11.75-.562l3.309-.17c7.404-.329 14.573-.067 21.941.732z"/><path fill="#171717" d="M413 393v1l-3.148.227c-8.931.79-15.529 2.175-22.852 7.773 2.088-4.884 5.267-6.824 10-9 5.914-1.759 10.292-2.725 16 0m-27 9c0 3 0 3-1.875 6.312-3.075 5.812-3.437 12.239-4.125 18.688h-1c-.998-16.838-.998-16.838 5-24z"/><path fill="#181818" d="M642 412h2c2.644 5.287 1.764 14.443.105 19.992-.94 2.081-1.921 4.057-3.105 6.008h-2l.656-1.625c2.889-8.131 2.629-15.875 2.344-24.375m-4 26 1 3c-5.238 5.209-9.79 8.248-17 10 2.093-3.14 3.062-3.747 6.312-5.375 3.976-2.11 6.715-4.268 9.688-7.625"/><path fill="#1b1b1b" d="M327 311c0 3.924-1.461 5.733-3.5 9.062-2.567 3.719-2.567 3.719-3.5 7.938h-2l-.367 1.652-.508 2.286-.551 2.507a209 209 0 0 1-1.117 4.735c-1.517 6.228-2.046 12.431-2.457 18.82-3.926-7.082-1.987-14.577.014-22.043 2.647-8.919 7-18.672 13.986-24.957"/><path fill="#212121" d="M433 435c0 4.285-1.993 5.904-4.797 8.992-4.186 3.815-9.267 6.877-15.008 7.133L411 451v3c-3.147-.699-6.026-1.761-9-3v-2l1.766.176c8.729.48 16.267-1.821 22.996-7.512A120 120 0 0 0 433 435"/><path fill="#202020" d="M541 416h1c.689 8.819-.662 16.448-5.977 23.695-1.926 2.236-3.804 4.359-6.023 6.305h-2v2l-7 2c4.437-4.576 4.437-4.576 6.902-6.434 7.018-5.401 10.889-12.746 12.688-21.406.341-2.669.341-2.669.41-6.16"/><path fill="#171717" d="M667 287c11.169 4.821 21.176 12.651 29 22v2l-4-2-2.125-.875C688 307 688 307 687.102 305.141c-3.356-6.52-10.891-10.408-17.098-13.782C668 290 668 290 667 287"/><path fill="#1c1c1c" d="M735 311c3.332 3.72 4.561 7.963 6.062 12.625l.798 2.438c2.224 6.931 4.14 13.618 4.14 20.937h-2l-.38-1.721c-2.296-10.304-4.592-20.265-8.8-29.978L734 313z"/><path fill="#222" d="m509.813 561.734 1.971-.006q2.059 0 4.115.011c2.095.011 4.187 0 6.28-.013q2.005.002 4.009.008l3.668.007c2.971.244 4.645.698 7.144 2.26-2.808 1.403-5.154 1.128-8.293 1.131l-3.85.004-2.014-.006c-2.005-.005-4.011 0-6.016.006-1.278 0-2.554-.002-3.87-.004l-3.531-.003c-3.536-.134-6.935-.569-10.425-1.129 3.6-2.25 6.619-2.258 10.812-2.266"/><path fill="#1b1b1b" d="M745 489h1c.449 6.171-.403 11.585-1.812 17.562l-.501 2.145c-1.211 4.925-2.834 9.572-4.687 14.293h-2c.749-4.075 1.818-8.012 2.938-12 1.695-6.151 2.843-12.251 3.667-18.586C744 490 744 490 745 489"/><path fill="#1c1c1c" d="m319 272 2 1-1.715 1.68-2.223 2.195-2.214 2.18c-1.905 1.815-1.905 1.815-2.848 3.945l-2-1q1.686-1.938 3.375-3.875l1.898-2.18A91 91 0 0 1 319 272m-10 11c0 3.84-1.034 4.446-3.625 7.188a112 112 0 0 0-9.148 11.281C295 303 295 303 293 304c1.497-4.491 3.989-7.939 6.875-11.625l1.316-1.734c2.344-3.026 4.6-5.536 7.809-7.641"/><path fill="#1a1a1a" d="M712 494c1.678 4.076.233 7.587-1.062 11.562l-.686 2.142C705.198 522.868 705.198 522.868 699 527c1.452-3.778 3.154-7.369 4.938-11 2.681-5.722 4.252-11.221 5.421-17.418C710 496 710 496 712 494"/><path fill="#1e1e1e" d="M312 487h1l.297 2.641c1.149 9.154 3.112 17.572 6.891 26.011C321 518 321 518 320 521c-5.935-10.556-10.587-21.796-8-34"/><path fill="#161616" d="m469 596 2 1c-7.63 7.726-15.792 14.897-24 22l-2-1c6.309-6.528 12.669-12.577 19.785-18.223 2.248-1.737 2.248-1.737 4.215-3.777"/><path fill="#1e1e1e" d="m279 499 1 3h2l.734 2.93c1.784 6.969 3.663 13.632 6.629 20.215L290 527l-1 2c-3.394-1.697-3.837-5.64-5-9.062l-.789-2.241C279 505.543 279 505.543 279 499"/><path fill="#222" d="m480 560 2 1Zm3.25 1.812 3.625-.037 3.453-.005 3.153-.013C496 562 496 562 498 564c-3.506 1.169-6.648 1.125-10.293 1.098l-2.139-.005q-3.378-.01-6.756-.031l-4.583-.013q-5.614-.017-11.229-.049l1-2c6.338-1.456 12.784-1.184 19.25-1.188"/><path fill="#1a1a1a" d="m655 249.813 2.078.54A168 168 0 0 1 669 254v2l-3.875-.812c-8.003-1.608-16.07-2.871-24.125-4.187v-2c5.083-1.248 9.058-.559 14 .811"/><path fill="#202020" d="M661 558c-8.27 5.457-18.273 6.593-28 6v-2l2.93-.332c6.975-.85 13.466-1.793 20.117-4.18C658 557 658 557 661 558"/><path fill="#141414" d="M505 394c-5.75 3-5.75 3-8 3v-2c3.067-1.862 4.597-2.215 8-1m-11 3 3 1-2.562 1.75c-4.873 3.989-7.497 9.794-10.438 15.25-1-3-1-3-.215-5.051 2.888-5.113 5.861-9 10.215-12.949"/><path fill="#191818" d="M620 392c7.21.379 14.174 4.749 19 10l-1 3-1.434-1.391c-4.327-4.015-8.252-6.689-13.781-8.785C621 394 621 394 620 392m19 13 3 2-1 3z"/><path fill="#1d1d1d" d="M525 394v2l-2.598-.438c-5.858-.951-11.464-1.838-17.402-1.562l-1-2c6.937-1.643 14.563-1.218 21 2m-2-2 2 1Zm2 4 3 1h-3z"/><path fill="#1c1c1c" d="M412 392c7.632.763 12.971 3.51 18 9.25a193 193 0 0 1 3 3.75c-3.684 0-4.012-.69-6.562-3.188-4.364-3.997-9.061-6.421-14.438-8.812z"/><path fill="#1d1d1d" d="M663 591c-2.698 2.698-4.97 2.843-8.688 3.625l-3.636.789c-3.628.578-7.009.69-10.676.586 3.53-2.353 6.933-3.08 11-4l2.418-.605 2.394-.583 2.208-.542C660 590 660 590 663 591"/><path fill="#101010" d="m345 292 2 1-4 2zm-4 3 2 1-1.938 1.875c-3.555 3.525-6.792 7.336-10.074 11.113L329 311h-2c1.659-4.325 4.871-7.094 8.125-10.25l1.707-1.68q2.079-2.04 4.168-4.07"/><path fill="#232323" d="m664 285 1 2c-4.297-.477-8.277-1.312-12.438-2.5-4.542-1.286-8.867-2.057-13.562-2.5v-1c8-2.014 17.598.557 25 4"/><path fill="#191919" d="M363 252c-1 2-1 2-4.203 3.254q-2.02.666-4.047 1.308l-2.027.67c-3.547 1.153-7.047 2.134-10.723 2.768v-2q3.838-1.514 7.688-3l2.185-.867c3.837-1.472 6.943-2.529 11.127-2.133"/><path fill="#171717" d="m326 572 2.125 1.355A1883 1883 0 0 0 345 584l-3 1a75 75 0 0 1-6.5-3.812l-1.762-1.12A443 443 0 0 1 326 575z"/><path fill="#191919" d="m678 547 2 1c-5.512 4.48-11.302 8.497-18 11l-2-1c2.565-2.984 5.48-4.376 9-6.062 3.167-1.526 6.072-2.986 9-4.938"/><path fill="#191919" d="M292 304h2c-1.343 4.307-2.989 8.275-5 12.312l-1.562 3.176C286 322 286 322 284 323c1.996-6.719 4.729-12.807 8-19"/><path fill="#0c0c0c" d="M697 269c2.438.812 2.438.812 5 2l1 3c-2.438-.812-2.438-.812-5-2zm6 5c2.438.812 2.438.812 5 2l1 3c-3.161-1.37-3.993-1.989-6-5m6 5h2l-1 2zm2 2c3.235 1.617 4.706 2.476 7 5l-1 2z"/><path fill="#1c1c1c" d="M560 563c-3.411 2.071-6.105 2.27-10.062 2.25l-3.161.016C544 565 544 565 541 563c5.373-2.687 13.25-1 19 0"/><path fill="#1a1a1a" d="m459 564 3 1a987 987 0 0 1-4.875 4.5l-2.742 2.531C452 574 452 574 450 574c1.365-3.117 2.869-5.087 5.438-7.312l1.808-1.614zm-10 10 1 2-2-1z"/><path fill="#292929" d="M314 337c.867 2.899 1.046 5.115.66 8.109l-.283 2.286-.315 2.355-.302 2.402c-.247 1.95-.503 3.899-.76 5.848-3.062-5.383-2.671-11.133-1.062-17 1.062-3 1.062-3 2.062-4"/><path fill="#121212" d="m385.813 278.938 3.52.026L392 279v2c-6.373.745-12.584 1.103-19 1l1-2c3.928-1.142 7.745-1.103 11.813-1.062"/><path fill="#1a1a1a" d="M444 619c-1.55 3.884-4.005 6.03-7.125 8.75l-2.758 2.422L432 632l-2-1a1445 1445 0 0 1 5.875-6l1.684-1.734C441.773 619 441.773 619 444 619"/><path fill="#121212" d="M622 561h2v2l8-1v3h-16v-2h6z"/><path fill="#161616" d="M695 311c4.534 1.474 6.149 5.061 8.312 9l1.127 1.945c.925 1.647 1.752 3.348 2.561 5.055l-1 2c-4.012-5.832-7.664-11.756-11-18"/><path fill="#101010" d="M684 298c4.174 3.501 8.315 6.98 12 11v2l-4-2-2.125-.875c-2.321-1.393-2.807-2.683-3.875-5.125l-2-2z"/><path fill="#171717" d="m737 523 1 2a112 112 0 0 1-3.438 7.125l-1.025 1.996A751 751 0 0 1 731 539h-2c1.506-5.34 3.982-11.982 8-16"/><path fill="#1b1b1b" d="M606 448q3.126.213 6.25.438l3.516.246c2.544.248 4.794.597 7.234 1.316-3.663 2.344-6.726 2.295-11 2-3.438-1-3.438-1-6-2z"/><path fill="#101010" d="M382 406h2l-.621 2.055c-1.832 6.328-2.965 12.371-3.379 18.945h-1a484 484 0 0 1-.188-7.125l-.076-2.016c-.069-4.728.861-7.81 3.264-11.859"/><path fill="#1d1d1d" d="M519 562a691 691 0 0 1 6.75-.125l3.797-.07c3.181.18 4.818.505 7.453 2.195-3.188 1.594-6.629 1.102-10.125 1.062l-2.285-.013q-2.795-.02-5.59-.049z"/><path fill="#181818" d="M522 449c-4.836 3.224-9.26 3.217-15 3l-2-1v-2l2.047.035 2.703.027 2.672.036c2.531-.002 2.531-.002 4.719-.664C519 448 519 448 522 449"/><path fill="#1b1b1b" d="M741 331h2q.758 2.873 1.5 5.75l.844 3.234C746 343 746 343 746 347h-2z"/><path fill="#222" d="M402 449h13l-1 2h-3v3c-3.147-.699-6.026-1.761-9-3z"/><path fill="#191919" d="M376 562c5.686 1.322 7.716 3.403 11 8l1 3c-3-1-3-1-5.438-3.938-2.238-2.675-3.387-3.886-6.562-5.062z"/><path fill="#1d1d1d" d="M356 663c4.014 1.338 5.358 3.763 8 7l3 2v2c-5.154-1.364-8.066-4.726-11-9z"/><path fill="#272727" d="M378 416h1v11h2l2 8c-3-1-3-1-4.188-3.312-1.154-5.238-.968-10.347-.812-15.688"/><path fill="#1b1b1b" d="M674 587c-1 2-1 2-3.504 2.852l-3.058.773-3.067.789L662 592c6.542-6.819 6.542-6.819 12-5"/><path fill="#202020" d="M288 528c3 1 3 1 4.168 2.777l1.02 2.161 1.042 2.152C295 537 295 537 295 539l-3-1a169 169 0 0 1-2-6l-2-1z"/><path fill="#1b1b1b" d="m469 596 2 1-9 9-2-1z"/><path fill="#474747" d="M352 628h1v25h-1z"/><path fill="#191919" d="M729 539c0 3.344-.475 4.068-2.375 6.688l-1.336 1.886L724 549h-2c1.668-3.941 4.227-6.789 7-10"/><path fill="#191919" d="M294 539c3.303 1.101 3.785 1.69 5.688 4.438l1.324 1.871C302 547 302 547 302 549c-4.208-1.503-5.803-4.233-8-8z"/><path fill="#191919" d="m341 544 4 2v2l-4-2zm4 4c2.962.613 4.381 1.254 7 3v2c-3.653-1.25-4.781-1.671-7-5"/><path fill="#181818" d="M322 524h3c1.605 2.188 1.605 2.188 3.188 5l1.605 2.812L331 534c-3.187-1.355-4.814-2.701-6.75-5.562l-1.297-1.879C322 525 322 525 322 524"/><path fill="#282828" d="M541 416h1c.381 10.899.381 10.899-2 15l-2 1c.875-5.875.875-5.875 2-7 .232-1.515.412-3.038.562-4.562l.254-2.504z"/><path fill="#1f1f1f" d="m718 289 5 1-1 4zm5 5 3 1-1 3zm3 4 2 1Z"/><path fill="#1b1b1b" d="m356 286 2 1-10 7-2-1c6.769-5.846 6.769-5.846 10-7"/><path fill="#131313" d="m326 267 2 1-6 6-2-1z"/><path fill="#191919" d="M385 668h2c-1.098 2.993-1.677 3.846-4.625 5.25L380 674a159 159 0 0 1 5-6"/><path fill="#191818" d="M280 342h1a408 408 0 0 1-.375 4.938l-.211 2.777L280 352l-2 1c-.286-7.429-.286-7.429 2-11"/><path fill="#212121" d="m689 577 3 1c-5.143 4.429-5.143 4.429-9 5z"/><path fill="#1c1c1c" d="M712 494c.999 2.698 1.036 3.88.188 6.688C711 503 711 503 709 504c.75-7.75.75-7.75 3-10"/><path fill="#171717" d="M316 512c3 1 3 1 4.25 3.375C321 518 321 518 320 521c-4-6.75-4-6.75-4-9"/><path fill="#0d0d0d" d="M621 393v1h-10c1-2 1-2 2.75-2.75 2.894-.322 4.651.523 7.25 1.75"/><path fill="#0d0d0d" d="M413 393v1h-10c1-2 1-2 2.75-2.75 2.894-.322 4.651.523 7.25 1.75"/><path fill="#171717" d="M317 328c1.255 3.766.371 5.372-1 9h-2c.75-6.75.75-6.75 3-9"/><path fill="#292929" d="M693 264h3l-1 2zm-2 1c2.915 1.074 4.778 1.778 7 4-4 0-4 0-7-2z"/><path fill="#212121" d="M314 337c1.108 3.325.845 5.622 0 9l-2-1c.875-6.875.875-6.875 2-8"/><path fill="#202020" d="M513 562h5v3h-6z"/><path fill="#141414" d="M657 283c2.352.599 4.686 1.269 7 2l1 2-7-1z"/><path fill="#1e1e1e" d="M649 249v2h-8v-2c5.75-1.125 5.75-1.125 8 0"/><path fill="#232323" d="M649 594c-2 2-2 2-5.625 2.125L640 596c4.862-3.241 4.862-3.241 9-2"/><path fill="#141414" d="M338 580c5.875 2.75 5.875 2.75 7 5-4.75-.875-4.75-.875-7-2z"/><path fill="#141414" d="M283 514h2l2 8c-2-1.75-2-1.75-4-4z"/><path fill="#1d1d1d" d="m667 287 6 3v3a125 125 0 0 1-6-4z"/><path fill="#131313" d="m459 564 3 1-4 2z"/><path fill="#313030" d="M534 560h2v2h5l-1 3h-3v-2h-2z"/><path fill="#151515" d="m710 503 1 3c-1.438 2.688-1.438 2.688-3 5l-1-2c1.556-4.556 1.556-4.556 3-6"/><path fill="#171717" d="M435 416h2l1 7-3-2c-.188-2.625-.188-2.625 0-5"/><path fill="#191919" d="M743 340h2l1 7h-2z"/><path fill="#1e1e1e" d="M651 592c2.188.312 2.188.312 4 1-2 2-2 2-4.625 2.125L648 595c1.25-1.562 1.25-1.562 3-3"/><path fill="#161616" d="m697 573-2 4-3-1c2.75-3 2.75-3 5-3"/><path fill="#1e1e1e" d="m321 568 5 4-1 2c-2-1.312-2-1.312-4-3z"/><path fill="#1f1f1f" d="M661 558c-2.375 1.562-2.375 1.562-5 3l-2-1c1.734-3.468 3.59-3.137 7-2"/><path fill="#212121" d="m381 434 3 1c1.188 2.562 1.188 2.562 2 5l-3-1c-1.188-2.562-1.188-2.562-2-5"/><path fill="#1c1c1c" d="m285 322 1 2c-1.438 2.625-1.438 2.625-3 5-1-3-1-3 0-6z"/><path fill="#262626" d="m620 392 6 1v2c-2.438-.375-2.438-.375-5-1z"/><path fill="#212121" d="M610.188 392.375 612 393c-3 2-3 2-5.187 1.625L605 394c3-2 3-2 5.188-1.625"/><path fill="#222" d="M402.188 392.375 404 393c-3 2-3 2-5.187 1.625L397 394c3-2 3-2 5.188-1.625"/><path fill="#1c1c1c" d="m663 555 3 1-4 3-2-1z"/><path fill="#252525" d="m412 392 6 1v2c-2.438-.375-2.438-.375-5-1z"/><path fill="#232323" d="M735 311c3 3.75 3 3.75 3 6l-3-1-1-3z"/><path fill="#141414" d="M704 274c1.938.812 1.938.812 4 2l1 3c-1.938-.812-1.938-.812-4-2z"/><path fill="#171717" d="m331 264 2 1c-1.375 1.5-1.375 1.5-3 3h-2l1-3z"/><path fill="#1e1e1e" d="m686 262 5 2v2l-5-2z"/><path fill="#191919" d="M589 434h2l2 5-3-1c-.688-2.062-.688-2.062-1-4"/><path fill="#171717" d="m736 317 3 1c.688 2.062.688 2.062 1 4l-3-1c-.688-2.062-.688-2.062-1-4"/><path fill="#161616" d="m341 544 4 2v2l-4-2z"/><path fill="#292828" d="m321 519 3 4h-3l-1-2z"/><path fill="#474747" d="M748 454h1v10h-1z"/><path fill="#4f4f4f" d="m689 305 2 2h-3z"/><path fill="#1d1d1d" d="m606 448 4 1v2l-4-1z"/><path fill="#232323" d="m391 444 3 2v2l-3-1z"/><path fill="#232323" d="m486 436 3 1v2l-3-1z"/><path fill="#474747" d="M584 416h1v9h-1z"/><path fill="#474747" d="M480 416h1v9h-1z"/><path fill="#1e1e1e" d="m434 412 3 1v3h-2z"/><path fill="#181818" d="m283 328 1 3-3 2c.875-3.875.875-3.875 2-5"/><path fill="#141414" d="m695 311 4 2v2l-3-1z"/><path fill="#474747" d="M376 417h1v8h-1z"/><path fill="#202020" d="m694 267 4 2h-4z"/><path fill="#1a1a1a" d="m346 548 3 1v2l-3-1z"/><path fill="#181818" d="m294 539 3 1v2l-3-1z"/><path fill="#1c1c1c" d="m502 448 3 1v2l-3-1z"/><path fill="#474747" d="M748 433h1v7h-1z"/><path fill="#1a1a1a" d="m538 411 3 1v2l-3-1z"/><path fill="#474747" d="M748 409h1v7h-1z"/><path fill="#1b1b1b" d="m657 283 3 1v2l-3-1z"/><path fill="#181818" d="m697 269 3 1v2l-3-1z"/><path fill="#474747" d="M585 598h6v1h-6z"/><path fill="#474747" d="M276 490h1v6h-1z"/><path fill="#474747" d="M748 466h1v6h-1z"/><path fill="#474747" d="M610 598h5v1h-5z"/><path fill="#474747" d="M520 598h5v1h-5z"/><path fill="#474747" d="m481 430 2 4-2-1z"/><path fill="#474747" d="M748 395h1v5h-1z"/><path fill="#474747" d="m352 618 1 4Z"/><path fill="#474747" d="m603 598 4 1Z"/><path fill="#474747" d="m547 598 4 1Z"/><path fill="#474747" d="m748 449 1 4Z"/><path fill="#474747" d="m587 438 3 1Z"/><path fill="#474747" d="m629 392 2 2h-2z"/><path fill="#474747" d="m673 589 2 1Z"/><path fill="#474747" d="M662 552h2l-1 2z"/><path fill="#474747" d="m298 550 2 1Z"/><path fill="#484848" d="m693 529 2 1Z"/><path fill="#474747" d="m640 283 3 1Z"/><path fill="#4c4b4b" d="m368 248 3 1Z"/><path fill="#474747" d="m579 598 2 1Z"/><path fill="#474747" d="m566 598 2 1Z"/><path fill="#474747" d="m531 598 2 1Z"/><path fill="#474747" d="m502 598 2 1Z"/><path fill="#474747" d="m499 598 2 1Z"/><path fill="#474747" d="m483 598 2 1Z"/><path fill="#4c4b4b" d="m551 560 2 1Z"/><path fill="#4c4b4b" d="m470 560 2 1Z"/><path fill="#474747" d="m292 542 2 1Z"/><path fill="#474747" d="m288 534 2 1Z"/><path fill="#474747" d="m511 453 2 1Z"/><path fill="#474747" d="m518 452 2 1Z"/><path fill="#474747" d="m412 452 2 1Z"/><path fill="#474747" d="m482 435 2 1Z"/><path fill="#474747" d="m418 392 2 1Z"/><path fill="#474747" d="m318 339 2 1Z"/><path fill="#474747" d="m681 300 2 1Z"/><path fill="#474747" d="m651 248 2 1Z"/></svg>